# xmcd CD database file
#
# Track frame offsets:
#	150
#	26842
#	50081
#	66436
#	90015
#	107302
#	133307
#	156156
#	183123
#	191737
#
# Disc length: 2874 seconds
#
# Revision: 1
# Processed by: cddbd v1.5.1PL0 Copyright (c) Steve Scherf et al.
# Submitted via: CDex 1.51
#
DISCID=830b380a
DTITLE=Art Pepper - Complete Surf Club Sessions CD2
DYEAR=1952
DGENRE=Jazz
TTITLE0=Night In Tunisia
TTITLE1=Spiked Punch
TTITLE2=The Way You Look Tonight
TTITLE3=Minor Yours
TTITLE4=Suzy The Poodle
TTITLE5=Easy Steppin'
TTITLE6=Chili Pepper
TTITLE7=Lamjhp
TTITLE8=Everything Happens To Me
TTITLE9=Move
EXTD=YEAR: 1952
EXTT0=
EXTT1=
EXTT2=
EXTT3=
EXTT4=
EXTT5=
EXTT6=
EXTT7=
EXTT8=
EXTT9=
PLAYORDER=
